<?xml version="1.0" encoding="UTF-8" standalone="no"?>
<!-- Created with Inkscape (http://www.inkscape.org/) -->

<svg
   xmlns:dc="http://purl.org/dc/elements/1.1/"
   xmlns:cc="http://creativecommons.org/ns#"
   xmlns:rdf="http://www.w3.org/1999/02/22-rdf-syntax-ns#"
   xmlns:svg="http://www.w3.org/2000/svg"
   xmlns="http://www.w3.org/2000/svg"
   xmlns:sodipodi="http://sodipodi.sourceforge.net/DTD/sodipodi-0.dtd"
   xmlns:inkscape="http://www.inkscape.org/namespaces/inkscape"
   width="163.75473mm"
   height="247.03885mm"
   viewBox="0 0 163.75473 247.03886"
   version="1.1"
   id="svg8"
   sodipodi:docname="background.svg"
   inkscape:version="0.92.3 (2405546, 2018-03-11)">
  <defs
     id="defs2" />
  <sodipodi:namedview
     id="base"
     pagecolor="#ffffff"
     bordercolor="#666666"
     borderopacity="1.0"
     inkscape:pageopacity="0.0"
     inkscape:pageshadow="2"
     inkscape:zoom="0.88269809"
     inkscape:cx="90.256707"
     inkscape:cy="385.42152"
     inkscape:document-units="mm"
     inkscape:current-layer="layer1"
     showgrid="false"
     inkscape:window-width="2493"
     inkscape:window-height="1385"
     inkscape:window-x="67"
     inkscape:window-y="27"
     inkscape:window-maximized="1" />
  <metadata
     id="metadata5">
    <rdf:RDF>
      <cc:Work
         rdf:about="">
        <dc:format>image/svg+xml</dc:format>
        <dc:type
           rdf:resource="http://purl.org/dc/dcmitype/StillImage" />
      </cc:Work>
    </rdf:RDF>
  </metadata>
  <g
     inkscape:label="Layer 1"
     inkscape:groupmode="layer"
     id="layer1"
     transform="translate(3.09497,4.5350447)"
     style="opacity:0.20364745">
    <g
       id="g1017"
       transform="matrix(0.15875,0,0,0.15875,72.568076,113.89652)">
      <g
         id="color-6">
        <path
           id="path979"
           d="M 16.0302,55.9368 C 14.4335,54.2639 14.094,51.844 15.0118,49.8556 10.7553,41.5083 13.3365,29.596 21.9662,20.9662 c 8.6297,-8.6298 20.542,-11.211 28.8894,-6.9545 2.026,-0.9351 4.4999,-0.5649 6.1752,1.1104 1.6753,1.6753 2.0455,4.1493 1.1104,6.1752 4.2661,8.3571 1.6753,20.2596 -6.9545,28.8894 -8.6298,8.6298 -20.5323,11.2207 -28.8894,6.9544 -2.026,0.9351 -4.5,0.5649 -6.1753,-1.1103 -0.031,-0.031 -0.0616,-0.0624 -0.0918,-0.094"
           stroke-miterlimit="10"
           inkscape:connector-curvature="0"
           style="fill:#fcea2b;stroke:none;stroke-width:2;stroke-linecap:round;stroke-miterlimit:10" />
        <path
           id="path981"
           d="m 50.5556,50.0124 c -8.631,8.631 -20.5347,11.2212 -28.8945,6.9571 34.6828,0 36.3371,-35.1456 36.3371,-35.1456 4.2734,8.3505 1.179,19.5576 -7.4426,28.1885 z"
           inkscape:connector-curvature="0"
           style="fill:#f4aa41;stroke:none" />
        <path
           id="path983"
           d="M 30.4541,59.9883 C 27.1777,59.9883 20,57 20,57 l -2.5,-1.0303 h 4.1611 c 13.9883,0 24.1807,-5.7363 30.2949,-17.0479 4.5869,-8.4883 5.0391,-17.0591 5.043,-17.1445 l 0.1768,-3.7549 1.7129,3.3462 c 4.4639,8.7231 1.4707,20.2446 -7.626,29.3511 v 0 c -6,6 -13.6895,9.2686 -20.8086,9.2686 z m -3.5254,-2.3028 c 7.4531,1.3506 16.2686,-1.7285 22.9199,-8.3799 7.0859,-7.0947 10.2578,-16.001 8.5996,-23.3125 -1.6289,8.8477 -7.9189,29.0635 -31.5195,31.6924 z"
           inkscape:connector-curvature="0"
           style="fill:#f4aa41;stroke:none" />
        <path
           id="path985"
           d="m 56.9613,14.9006 c 0,0 1.8262,4.8233 0.9674,7.234 L 53.828,18.034 56.9613,14.9006"
           inkscape:connector-curvature="0"
           style="fill:#f4aa41;stroke:none" />
        <path
           id="path987"
           d="m 16.1679,57.1214 c 0,0 5.0539,1.0283 7.2955,-0.2063 l -4.7058,-3.3893 -2.5897,3.5956"
           inkscape:connector-curvature="0"
           style="fill:#f4aa41;stroke:none" />
      </g>
      <g
         id="hair-7" />
      <g
         id="skin-5" />
      <g
         id="skin-shadow-6" />
      <g
         id="line-9">
        <path
           id="path993"
           d="M 16.0302,55.9368 C 14.4335,54.2639 14.094,51.844 15.0118,49.8556 10.7553,41.5083 13.3365,29.596 21.9662,20.9662 c 8.6297,-8.6298 20.542,-11.211 28.8894,-6.9545 2.026,-0.9351 4.4999,-0.5649 6.1752,1.1104 1.6753,1.6753 2.0455,4.1493 1.1104,6.1752 4.2661,8.3571 1.6753,20.2596 -6.9545,28.8894 -8.6298,8.6298 -20.5323,11.2207 -28.8894,6.9544 -2.026,0.9351 -4.5,0.5649 -6.1753,-1.1103 -0.031,-0.031 -0.0616,-0.0624 -0.0918,-0.094"
           stroke-miterlimit="10"
           inkscape:connector-curvature="0"
           style="fill:none;stroke:#000000;stroke-width:2;stroke-linecap:round;stroke-miterlimit:10" />
        <path
           id="path995"
           d="M 16.0302,55.9368 C 14.4335,54.2639 14.094,51.844 15.0118,49.8556 10.7553,41.5083 13.3365,29.596 21.9662,20.9662 c 8.6297,-8.6298 20.542,-11.211 28.8894,-6.9545 2.026,-0.9351 4.4999,-0.5649 6.1752,1.1104 1.6753,1.6753 2.0455,4.1493 1.1104,6.1752 4.2661,8.3571 1.6753,20.2596 -6.9545,28.8894 -8.6298,8.6298 -20.5323,11.2207 -28.8894,6.9544 -2.026,0.9351 -4.5,0.5649 -6.1753,-1.1103 -0.031,-0.031 -0.0616,-0.0624 -0.0918,-0.094"
           stroke-miterlimit="10"
           inkscape:connector-curvature="0"
           style="fill:none;stroke:#000000;stroke-width:2;stroke-linecap:round;stroke-miterlimit:10" />
      </g>
    </g>
    <g
       id="g1045"
       transform="matrix(0.15875,0,0,0.15875,125.93771,113.50874)">
      <g
         id="color-8">
        <path
           id="path1019"
           d="m 56.0354,54.0052 -8.1237,-15.2094 3.3463,0.5399 c 0.5439,0.0891 1.0571,-0.2796 1.1462,-0.8235 0.0381,-0.2326 -0.0073,-0.4712 -0.1283,-0.6735 l -7.3722,-12.434 3.0778,0.2186 c 0.5498,0.0384 1.0267,-0.3762 1.0651,-0.9261 0.0158,-0.2267 -0.0462,-0.4521 -0.1759,-0.6388 L 36.825,6.7243 C 36.633,6.4545 36.3218,6.2948 35.9907,6.2962 35.6586,6.3011 35.3507,6.471 35.1694,6.7493 l -3.7175,5.7005 -7.8213,12.0069 c -0.3011,0.4617 -0.1709,1.08 0.2908,1.3811 0.2089,0.1362 0.4612,0.1893 0.7072,0.1488 L 26.93,25.6134 19.3782,37.8248 c -0.2901,0.4687 -0.1453,1.0838 0.3234,1.3738 0.2013,0.1246 0.4405,0.1736 0.6746,0.1381 l 3.7265,-0.5629 -8.1347,15.2314 c -0.2597,0.4861 -0.0762,1.0908 0.4099,1.3505 0.1647,0.088 0.3508,0.128 0.5372,0.1155 l 12.447,-0.8363 1.0359,-0.0699 10.961,-0.1247 13.7184,1.0309 h 0.0749 c 0.5512,-1e-4 0.9979,-0.447 0.9978,-0.9981 0,-0.1639 -0.0404,-0.3253 -0.1176,-0.4699 z"
           inkscape:connector-curvature="0"
           style="fill:#5c9e31;stroke:none" />
      </g>
      <g
         id="hair-72" />
      <g
         id="skin-8" />
      <g
         id="skin-shadow-2" />
      <g
         id="line-99">
        <polyline
           id="polyline1025"
           points="41.4476,53.4897 55.1936,54.5227 46.1036,37.5027 51.4476,38.3647 43.0886,24.2657 48.0726,24.6147 36.0036,7.2457 24.4476,24.9897 28.9176,24.2657 20.1976,38.3647 25.9026,37.5027 16.8127,54.5227 30.3226,53.6147"
           style="fill:none;stroke:#000000;stroke-width:2;stroke-linecap:round;stroke-linejoin:round" />
        <line
           id="line1027"
           stroke-miterlimit="10"
           y2="65.272697"
           y1="55.963699"
           x2="36.003601"
           x1="36.003601"
           style="fill:none;stroke:#000000;stroke-width:2;stroke-linecap:round;stroke-miterlimit:10" />
      </g>
    </g>
    <g
       id="g1209"
       transform="matrix(0.15875,0,0,0.15875,125.7564,209.95249)">
      <g
         id="color-4">
        <polygon
           id="polygon1160"
           points="28,29.175 29.924,27.251 34.842,29.347 34.424,33 28.962,33.024 28,31.1 "
           style="fill:#d0cfce" />
        <polygon
           id="polygon1162"
           points="36.057,53.886 33.644,51 30.758,51 24.875,57.359 22.835,59.475 23.493,61.1 35.742,56.2 "
           style="fill:#d0cfce" />
        <polyline
           id="polyline1164"
           points="34.428 51.422 31.071 51.422 28.834 42.763 28.834 33.142 35.186 33.118 37.112 36.982 36.978 41.785 34.428 51.422"
           style="fill:#d0cfce" />
        <path
           id="path1166"
           d="M 30.8434,27.4215 A 0.0084,0.0084 0 0 1 30.8394,27.409 L 41.33,10.0582 a 0.0241,0.0241 0 0 1 0.015,-0.01 L 46.9275,9.15 a 0.0233,0.0233 0 0 1 0.0172,0.0052 l 4.0175,3.7279 A 0.0261,0.0261 0 0 1 50.97,12.9 l 0.0273,5.7526 a 0.0214,0.0214 0 0 1 -0.0081,0.0158 L 35.77,29.4837 a 0.02,0.02 0 0 1 -0.0174,0.002 z"
           inkscape:connector-curvature="0"
           style="fill:#d0cfce" />
        <path
           id="path1168"
           d="m 48.865,10.5609 c 0,0 2.1228,2.9638 -15.1377,17.9827 v 0 c 0,0 2.0307,1.9315 5.7535,-1.1739 3.7228,-3.1054 11.5162,-8.7069 11.5162,-8.7069 0,0 2.3953,-4.8639 -2.132,-8.1019"
           inkscape:connector-curvature="0"
           style="fill:#9b9b9a" />
        <path
           id="path1170"
           d="m 31.4209,33.4005 c 0,0 3.9361,1.444 1.5521,18.0218 v 0 l 4.0048,-9.6369 c 0,0 0.8043,-8.7585 -5.5569,-8.3849"
           inkscape:connector-curvature="0"
           style="fill:#9b9b9a" />
        <polygon
           id="polygon1172"
           points="32.973,28.927 32.973,33.024 34.424,33 34.842,29.347 "
           style="fill:#9b9b9a" />
      </g>
      <g
         id="line-91">
        <g
           id="Mechanical_Leg">
          <g
             id="g1183">
            <path
               id="path1175"
               d="M 31.12,27.7436 A 0.7963,0.7963 0 0 1 30.7351,26.5297 L 40.8356,10.8918 a 2.5216,2.5216 0 0 1 1.5319,-0.9859 l 3.9474,-0.5824 a 2.4467,2.4467 0 0 1 1.7377,0.5173 l 2.7462,2.4341 a 2.5412,2.5412 0 0 1 0.7484,1.6632 v 3.7727 a 2.0917,2.0917 0 0 1 -0.8325,1.554 l -14.4923,9.6461 a 2.1294,2.1294 0 0 1 -1.76,0.18 z"
               stroke-miterlimit="10"
               inkscape:connector-curvature="0"
               style="fill:none;stroke:#000000;stroke-width:2;stroke-miterlimit:10" />
            <path
               id="path1177"
               d="M 33.9628,51.4223 H 32.2266 A 2.1975,2.1975 0 0 1 30.2391,49.4381 L 28.4267,35.1265 a 1.73,1.73 0 0 1 1.7487,-1.9915 l 2.5714,-0.0093 a 3.5952,3.5952 0 0 1 2.917,1.77 l 0.1591,0.3083 a 9.1977,9.1977 0 0 1 0.8591,3.7766 l -0.0234,0.8055 a 20.1577,20.1577 0 0 1 -0.5859,3.9282 l -2.11,7.7079"
               stroke-miterlimit="10"
               inkscape:connector-curvature="0"
               style="fill:none;stroke:#000000;stroke-width:2;stroke-miterlimit:10" />
            <path
               id="path1179"
               d="M 35.5423,56.9767 A 1.8737,1.8737 0 0 0 36.62,55.6329 l 0.0481,-0.3345 a 2.4657,2.4657 0 0 0 -0.52,-1.7392 l -1.226,-1.3875 A 2.5355,2.5355 0 0 0 33.26,51.4223 H 32.2092 A 2.7355,2.7355 0 0 0 30.51,52.1372 l -4.82,4.9289 c -0.3845,0.3932 -1.02,1.03 -1.4128,1.4154 l -0.7287,0.7153 a 1.4954,1.4954 0 0 0 -0.3658,1.513 1,1 0 0 0 1.2831,0.4586 z"
               inkscape:connector-curvature="0"
               style="fill:none;stroke:#000000;stroke-width:2;stroke-linejoin:round" />
            <path
               id="path1181"
               d="m 28.1585,30.256 a 2.6181,2.6181 0 0 1 0.7264,-1.6494 l 0.581,-0.55 a 1.7015,1.7015 0 0 1 1.6539,-0.3133 l 3.3426,1.3475 a 1.3811,1.3811 0 0 1 0.8076,1.3667 l -0.2015,1.6678 a 1.1659,1.1659 0 0 1 -1.12,0.997 l -3.7732,0.0156 a 1.82,1.82 0 0 1 -1.4673,-0.88 l -0.0824,-0.156 A 4.7039,4.7039 0 0 1 28.1585,30.256 Z"
               stroke-miterlimit="10"
               inkscape:connector-curvature="0"
               style="fill:none;stroke:#000000;stroke-width:2;stroke-miterlimit:10" />
          </g>
        </g>
      </g>
    </g>
    <g
       id="g1283"
       transform="matrix(0.15875,0,0,0.15875,20.262241,209.91837)">
      <g
         id="color-5" />
      <g
         id="hair-8" />
      <g
         id="skin-70" />
      <g
         id="skin-shadow-4" />
      <g
         id="line-8">
        <path
           id="path1264"
           d="m 31.3109,42.1835 c -0.3895,-4.0287 3.2811,-7.3285 7.3285,-7.3285 4.0474,0 7.3285,3.32 7.3285,7.3285 0,1.9413 -0.5746,9.4819 -10.7869,9.1301 -4.5864,-0.3678 -8.4458,-3.7482 -9.0968,-8.831 -0.5015,-3.9165 0.0223,-7.3091 4.0759,-11.3628 4.0537,-4.0537 5.2229,-4.2957 9.3212,-9.9483 4.0983,-5.6526 2.5823,-9.2909 2.3736,-10.0085 -0.2087,-0.7176 -1.6073,-3.0374 -4.2006,-3.0374 -2.5934,0 -3.8432,2.7692 -4.1817,3.9137 -0.3385,1.1445 -0.7269,3.4443 -0.0932,7.8778 0.4744,3.3194 8.0552,32.289 8.9828,36.6029 0.089,0.4139 0.1574,0.8321 0.1961,1.2496 0.0029,0.0308 0.0279,0.7657 0.0279,0.7657 0,2.7615 -2.2386,5 -5,5 -2.7614,0 -5,-2.2385 -5,-5 0,-0.3646 0.039,-0.7202 0.1132,-1.0627 0,0 0.3213,-1.1083 0.8974,-1.2909"
           stroke-miterlimit="10"
           inkscape:connector-curvature="0"
           style="fill:none;stroke:#000000;stroke-width:2;stroke-linecap:round;stroke-linejoin:round;stroke-miterlimit:10" />
        <circle
           id="circle1266"
           r="2"
           cy="57.1464"
           cx="33.947102"
           style="fill:#000000;stroke:none" />
      </g>
    </g>
    <g
       id="g1091"
       transform="matrix(0.15875,0,0,0.15875,126.09993,160.99914)">
      <g
         id="color-60">
        <path
           id="path1047"
           d="m 17.2127,12.75 -1.0877,5 -2.2873,0.5625 -1.8357,1.9925 -5.4986,0.6325 -0.3532,1.5 1.8421,3.0837 7.0077,1.7913 0.9529,9.8949 0.6348,3.9176 4.9409,3.7104 1.9909,6.1514 -0.7999,7.5348 0.7999,3.4576 2.5682,-1.1364 1.8939,-4.9315 2.1061,-9.4113 3.3698,0.875 7.5502,-0.875 8.0799,-2.1875 2.9401,3.8826 2.9349,3.9953 0.4375,7.6221 1.1875,2.0921 3.1135,-0.9228 0.2989,-9.2563 -1.9497,-6.1068 1.2924,-6.7437 -0.9426,-3.4375 1,-0.0625 -0.625,-2.0625 c 0,0 5.2823,-4.222 5.3125,-9.875 0.038,-7.1042 -7.2917,-13.6042 -12.5833,-11.1042 l 1.1133,1.206 4.2201,1.4607 2.9569,3.9292 0.2594,5.8833 -2.8497,2.9946 c 0,0 -3.4179,1.3181 -3.6082,1.3356 C 53.4059,29.1603 50.239,28.7702 49.814,28.7057 49.389,28.6412 42.1498,28.4819 41.8998,28.48 41.6499,28.4782 28,28.375 28,28.375 L 26.2368,23.3718 24.1573,20.5591 21.8255,18.9168 20.7134,15.9715 19.5877,13.75 Z"
           inkscape:connector-curvature="0"
           style="fill:#f4aa41;stroke:none" />
        <path
           id="path1049"
           d="m 44.296,45.1562 1.2083,3.5938 4.2567,2.9475 -0.2439,6.3442 0.6122,3.863 3.1667,0.512 c 0,0 2.25,-0.6667 2.7917,-3.5833 l -0.75,-7.875 -3.5,-3.5 -2.5417,-4.2917 z"
           inkscape:connector-curvature="0"
           style="fill:#e27022;stroke:none" />
        <path
           id="path1051"
           d="m 16.6754,39.7993 -5.5255,7.6721 c -0.0134,0.0187 -0.0215,0.0407 -0.0232,0.0636 l -0.3272,4.295 c -0.0022,0.0291 0.0058,0.0581 0.0227,0.0819 l 3.1895,4.498 c 0.0218,0.0307 0.0562,0.05 0.0937,0.0525 l 3.9491,0.2649 c 0.0461,0.0031 0.0902,-0.0195 0.1146,-0.0587 l 1.1604,-1.8636 c 0.0055,-0.0088 0.0075,-0.0108 0.0107,-0.0206 0.0453,-0.1395 0.4485,-2.6844 -1.1605,-2.8839 -1.8836,-0.2336 -2.0546,-1.2336 -1.6604,-2.4479 v 0 c -0.0091,-0.0473 0.0098,-0.0956 0.0485,-0.1243 l 5.5318,-4.0882 c 0.0602,-0.0445 0.0681,-0.1316 0.0169,-0.1863 l -2.8728,-3.0624 c -0.0194,-0.0207 -0.0418,-0.0339 -0.0699,-0.0376 -0.3001,-0.0395 -2.229,-0.3604 -2.2747,-2.0886 -0.0033,-0.1168 -0.1555,-0.1605 -0.2237,-0.0659 z"
           inkscape:connector-curvature="0"
           style="fill:#e27022;stroke:none" />
      </g>
      <g
         id="hair-2" />
      <g
         id="skin-7" />
      <g
         id="skin-shadow-61" />
      <g
         id="line-3">
        <path
           id="path1057"
           d="m 58.6667,35.9167 c 0.6667,1.6979 0.8506,2.9638 0.5159,4.5011 L 58.0504,45.6187 60,51.7255 c 0,0 0.1206,4.7698 0.0014,8.2786 -0.0369,1.087 -0.9494,1.9752 -2.0371,1.9751 h -0.3531 c -1.3464,0 -1.9256,-1.3248 -1.9256,-2.6712 l -0.8522,-8.3913 c 0,0 -7.4907,-5.4667 -6.4583,-13.6042"
           stroke-miterlimit="10"
           inkscape:connector-curvature="0"
           style="fill:none;stroke:#000000;stroke-width:2;stroke-linecap:round;stroke-linejoin:round;stroke-miterlimit:10" />
        <path
           id="path1059"
           d="M 33.5155,46.5 C 37.3488,46.2948 44.75,46.5 48.5,43.8125"
           stroke-miterlimit="10"
           inkscape:connector-curvature="0"
           style="fill:none;stroke:#000000;stroke-width:2;stroke-linecap:round;stroke-linejoin:round;stroke-miterlimit:10" />
        <path
           id="path1061"
           d="m 51.6253,13.25 c 5.7603,1.5458 8.0746,4.2902 8.6494,7.2047 1.0392,5.269 -4.012,9.798 -9.2239,8.5024 C 48.5251,28.3293 46.402,28.5142 46.402,28.5142 L 28,28.375 C 26.3125,20.25 21.5527,18.81 21.5527,18.81 20.6874,13.25 17.25,13.25 17.25,13.25 l -0.6995,4.8391 -1.4644,0.2501 c -0.7843,0.1339 -1.5121,0.4951 -2.0931,1.0387 l -1.3525,1.2654 -4.1141,0.4425 c -0.7613,0.0819 -1.229,0.8738 -0.9332,1.5801 l 0.8806,2.1021 c 0.2896,0.6913 0.9063,1.1916 1.6425,1.3325 l 6.4671,0.7328 c 0,0 -1,13.1667 2.7292,15.1667 8.1309,4.3607 4.4071,16.5216 4.4071,16.5216 -0.8217,1.4362 -0.1868,3.4576 1.4679,3.4576 h 0.0015 c 0.7939,0 1.5235,-0.4367 1.8987,-1.1364 l 2.0998,-5.4678 1.3773,-9.1449 c 0.1081,-0.7178 -0.0364,-1.4427 -0.3653,-2.0898 -0.576,-1.1333 -1.2538,-3.3607 -0.137,-6.5257"
           stroke-miterlimit="10"
           inkscape:connector-curvature="0"
           style="fill:none;stroke:#000000;stroke-width:2;stroke-linecap:round;stroke-linejoin:round;stroke-miterlimit:10" />
        <path
           id="path1063"
           d="m 16.2346,40.3005 -4.3515,6.655 c -0.3212,0.4697 -0.5044,1.03 -0.5192,1.6187 -0.044,1.7553 -0.2547,5.5414 2.9991,7.69 0.8545,0.5642 2.4644,0.6389 3.3141,0.1114 0.7175,-0.4455 1.3028,-1.2911 0.7739,-2.8914"
           stroke-miterlimit="10"
           inkscape:connector-curvature="0"
           style="fill:none;stroke:#000000;stroke-width:2;stroke-linecap:round;stroke-linejoin:round;stroke-miterlimit:10" />
        <line
           id="line1065"
           stroke-miterlimit="10"
           y2="48.516399"
           y1="45.4366"
           x2="16.125"
           x1="20.534"
           style="fill:none;stroke:#000000;stroke-width:2;stroke-linecap:round;stroke-linejoin:round;stroke-miterlimit:10" />
        <path
           id="path1067"
           d="m 46.4167,48.5164 c 0.4329,1.5669 3.0772,3.003 4.25,3.7336 l -1.0698,7.1428 c 0,0.6523 0.1869,1.281 0.5906,1.7322 1.0625,1.1875 2.4301,0.6653 2.4301,0.6653"
           stroke-miterlimit="10"
           inkscape:connector-curvature="0"
           style="fill:none;stroke:#000000;stroke-width:2;stroke-linecap:round;stroke-linejoin:round;stroke-miterlimit:10" />
      </g>
    </g>
    <g
       id="g1158"
       transform="matrix(0.15875,0,0,0.15875,125.91475,64.224752)">
      <g
         id="color-2">
        <line
           id="line1093"
           y2="35"
           y1="35"
           x2="25.875"
           x1="16"
           style="fill:#ea5a47;stroke:none" />
        <path
           id="path1095"
           d="m 25.875,35 c 3.4167,0 4.75,-2.9167 4.75,-6.1667"
           inkscape:connector-curvature="0"
           style="fill:#ea5a47;stroke:none" />
        <line
           id="line1097"
           y2="45.5"
           y1="45.5"
           x2="19.75"
           x1="16"
           style="fill:#ea5a47;stroke:none" />
        <line
           id="line1099"
           y2="39.4375"
           y1="45.5"
           x2="35.299702"
           x1="35.299702"
           style="fill:#ea5a47;stroke:none" />
        <path
           id="path1101"
           d="m 35.2997,39.4375 c 0,-2.2455 1.2003,-5.25 5.0756,-5.25"
           inkscape:connector-curvature="0"
           style="fill:#ea5a47;stroke:none" />
        <line
           id="line1103"
           y2="34.541698"
           y1="34.541698"
           x2="49.875"
           x1="58.458302"
           style="fill:#ea5a47;stroke:none" />
        <path
           id="path1105"
           d="m 40.375,45.5 c 0,0 0.1642,10.5 -7.9583,10.5 H 16 C 8.7917,56 8.3333,45.5 16,45.5 8.7917,45.5 8.3333,35 16,35 7.8333,27.75 17.875,21.4375 22.5,26.3125 17.701,19.6875 27.875,16 31.375,21.3125 30.9627,16 36.2222,15.0417 41.1003,19.024 l -0.4336,0.351 C 43.0417,17 50.8443,18.2917 50.8443,24.6891 l -2.2192,1.6234 c 6.8646,-6.8646 14.2083,4.1875 8.5,8.2292 h 1.3333 c 4.75,0 5.2917,10.9583 -1.3333,10.9583 H 29.2917"
           inkscape:connector-curvature="0"
           style="fill:#ffa7c0;stroke:none" />
        <path
           id="path1107"
           d="M 40.6667,19.375 C 38.25,21.7917 40.3845,22.5532 36.396,26.5417"
           inkscape:connector-curvature="0"
           style="fill:#ea5a47;stroke:none" />
      </g>
      <g
         id="hair-1" />
      <g
         id="skin-59" />
      <g
         id="skin-shadow-9" />
      <g
         id="line-1">
        <line
           id="line1113"
           stroke-miterlimit="10"
           y2="35"
           y1="35"
           x2="25.875"
           x1="16"
           style="fill:none;stroke:#000000;stroke-width:2;stroke-linecap:round;stroke-linejoin:round;stroke-miterlimit:10" />
        <path
           id="path1115"
           d="m 25.875,35 c 3.4167,0 4.75,-2.9167 4.75,-6.1667"
           stroke-miterlimit="10"
           inkscape:connector-curvature="0"
           style="fill:none;stroke:#000000;stroke-width:2;stroke-linecap:round;stroke-linejoin:round;stroke-miterlimit:10" />
        <line
           id="line1117"
           stroke-miterlimit="10"
           y2="45.5"
           y1="45.5"
           x2="19.75"
           x1="16"
           style="fill:none;stroke:#000000;stroke-width:2;stroke-linecap:round;stroke-linejoin:round;stroke-miterlimit:10" />
        <line
           id="line1119"
           stroke-miterlimit="10"
           y2="39.4375"
           y1="45.5"
           x2="35.299702"
           x1="35.299702"
           style="fill:none;stroke:#000000;stroke-width:2;stroke-linecap:round;stroke-linejoin:round;stroke-miterlimit:10" />
        <path
           id="path1121"
           d="m 35.2997,39.4375 c 0,-2.2455 1.2003,-5.25 5.0756,-5.25"
           stroke-miterlimit="10"
           inkscape:connector-curvature="0"
           style="fill:none;stroke:#000000;stroke-width:2;stroke-linecap:round;stroke-linejoin:round;stroke-miterlimit:10" />
        <line
           id="line1123"
           stroke-miterlimit="10"
           y2="34.541698"
           y1="34.541698"
           x2="49.875"
           x1="58.458302"
           style="fill:none;stroke:#000000;stroke-width:2;stroke-linecap:round;stroke-linejoin:round;stroke-miterlimit:10" />
        <path
           id="path1125"
           d="m 40.375,45.5 c 0,0 0.1642,10.5 -7.9583,10.5 H 16 C 8.7917,56 8.3333,45.5 16,45.5 8.7917,45.5 8.3333,35 16,35 7.8333,27.75 17.875,21.4375 22.5,26.3125 17.701,19.6875 27.875,16 31.375,21.3125 30.9627,16 36.2222,15.0417 41.1003,19.024 l -0.4336,0.351 C 43.0417,17 50.8443,18.2917 50.8443,24.6891 l -2.2192,1.6234 c 6.8646,-6.8646 14.2083,4.1875 8.5,8.2292 h 1.3333 c 4.75,0 5.2917,10.9583 -1.3333,10.9583 H 29.2917"
           stroke-miterlimit="10"
           inkscape:connector-curvature="0"
           style="fill:none;stroke:#000000;stroke-width:2;stroke-linecap:round;stroke-linejoin:round;stroke-miterlimit:10" />
        <path
           id="path1127"
           d="M 40.6667,19.375 C 38.25,21.7917 40.3845,22.5532 36.396,26.5417"
           stroke-miterlimit="10"
           inkscape:connector-curvature="0"
           style="fill:none;stroke:#000000;stroke-width:2;stroke-linecap:round;stroke-linejoin:round;stroke-miterlimit:10" />
      </g>
    </g>
    <g
       id="g1258"
       transform="matrix(0.15875,0,0,0.15875,20.170629,65.239903)">
      <g
         id="color-0">
        <path
           id="path1211"
           d="m 22.46,40.4 2.03,3.94 -0.1088,3.962 -2.731,1.381 -7.28,-0.6751 0.2453,-7.234 4.245,-1.424 1.097,-4.584 1.673,-0.806 z"
           transform="matrix(1.299,0,0,1.299,-10.1,-9.952)"
           inkscape:connector-curvature="0"
           style="fill:#d0cfce" />
        <polygon
           id="polygon1213"
           points="44.83,48.92 40.74,48.7 40.74,44.05 43.53,42.19 47.25,45.91 "
           transform="matrix(1.299,0,0,1.299,-10.1,-9.952)"
           style="fill:#d0cfce" />
        <polygon
           id="polygon1215"
           points="25.85,41.73 37.95,41.73 39.81,43.59 39.81,48.24 37.95,50.1 25.85,50.1 23.99,48.24 23.99,43.59 "
           transform="matrix(1.299,0,0,1.299,-8.357,-9.905)"
           style="fill:#d0cfce" />
        <polygon
           id="polygon1217"
           points="46.89,45.91 43.5,42.52 44.35,33.18 46.04,23.84 51.14,20.45 57.08,23 57.08,28.09 49.44,45.06 "
           transform="matrix(1.299,0,0,1.299,-10.1,-9.952)"
           style="fill:#d0cfce" />
        <path
           id="path1219"
           d="m 59.84,19.09 c 0,0 1.206,8.559 -9.042,29.17 0.1585,1.189 4.087,1.766 9.719,-12.93 0,0 8.38,-14.96 -0.6761,-16.24"
           inkscape:connector-curvature="0"
           style="fill:#9b9b9a;stroke-width:2" />
        <path
           id="path1221"
           d="m 45.87,44.06 -3.385,4.322 h 3.49 z"
           transform="matrix(1.299,0,0,1.299,-10.1,-9.952)"
           inkscape:connector-curvature="0"
           style="fill:#9b9b9a" />
      </g>
      <g
         id="line-7">
        <path
           id="path1224"
           d="m 44.04,46.24 0.6839,-0.4559 a 2.55,2.55 0 0 1 3.218,0.3187 l 1.65,1.65 a 2.55,2.55 0 0 1 0.1854,3.399 l -0.8328,1.038 a 2.55,2.55 0 0 1 -2.126,0.95 l -1.501,-0.08121 a 2.55,2.55 0 0 1 -2.412,-2.546 v -2.151 a 2.55,2.55 0 0 1 1.135,-2.122 z"
           inkscape:connector-curvature="0"
           style="fill:none;stroke:#000000;stroke-width:2;stroke-linecap:round;stroke-linejoin:round" />
        <path
           id="path1226"
           d="m 23.59,46.21 0.7924,-0.7046 a 2.55,2.55 0 0 1 1.694,-0.6445 h 13.48 a 2.55,2.55 0 0 1 1.695,0.6445 l 0.7923,0.7046 a 2.55,2.55 0 0 1 0.8555,1.905 V 51.1 a 2.55,2.55 0 0 1 -0.8555,1.905 l -0.7923,0.7046 a 2.55,2.55 0 0 1 -1.695,0.6445 h -13.48 a 2.55,2.55 0 0 1 -1.694,-0.6445 L 23.59,53.005 A 2.55,2.55 0 0 1 22.7346,51.1 v -2.985 a 2.55,2.55 0 0 1 0.8551,-1.905 z"
           stroke-miterlimit="10"
           inkscape:connector-curvature="0"
           style="fill:none;stroke:#000000;stroke-width:2;stroke-miterlimit:10" />
        <path
           id="path1228"
           d="m 49.86,48.06 -2.37,-2.37 a 2.55,2.55 0 0 1 -0.7364,-2.034 l 0.9638,-10.6 q 0.01032,-0.1132 0.03073,-0.2253 l 1.951,-10.73 a 2.55,2.55 0 0 1 1.094,-1.665 l 4.443,-2.962 a 2.55,2.55 0 0 1 2.419,-0.2221 l 4.76,2.04 a 2.55,2.55 0 0 1 1.546,2.344 v 4.265 a 2.55,2.55 0 0 1 -0.2246,1.046 l -9.057,20.13 a 2.55,2.55 0 0 1 -1.519,1.373 l -0.6913,0.2304 a 2.55,2.55 0 0 1 -2.609,-0.6159 z"
           stroke-miterlimit="10"
           inkscape:connector-curvature="0"
           style="fill:none;stroke:#000000;stroke-width:2;stroke-miterlimit:10" />
        <path
           id="path1230"
           d="M 15.86,47.11 H 14.32"
           transform="matrix(1.275,0,0,1.275,-8.565,-9.172)"
           inkscape:connector-curvature="0"
           style="fill:none;stroke:#000000;stroke-width:1.56900001;stroke-linecap:round;stroke-linejoin:round" />
        <path
           id="path1232"
           d="m 15.65,44.32 -1.25,0.1"
           transform="matrix(1.275,0,0,1.275,-8.565,-9.172)"
           inkscape:connector-curvature="0"
           style="fill:none;stroke:#000000;stroke-width:1.56900001;stroke-linecap:round;stroke-linejoin:round" />
        <path
           id="path1234"
           d="m 20.65,50.15 c 0.3858,-3.8e-5 0.7633,-0.1117 1.087,-0.3215 l 2.447,-1.586 v -3.53 l -1.629,-3.167 c -0.1011,-0.1966 -0.1689,-0.4086 -0.2007,-0.6273 l -0.7261,-4.998 c -0.268,-0.8935 -1.974,-0.9759 -2.502,-0.092 -0.2689,1.154 -0.3842,2.339 -0.3429,3.523 0.03806,1.08 -0.7724,2.001 -1.848,2.102 l -2.45,0.1825 c -1.7,0.1012 -1.778,2.576 -0.0882,2.785 -1.721,0.6565 -1.495,2.417 -0.0775,2.694 -1.519,0.3195 -1.474,2.498 0.05605,2.763 l 1.741,0.2732 z"
           transform="matrix(1.275,0,0,1.275,-8.565,-9.172)"
           inkscape:connector-curvature="0"
           style="fill:none;stroke:#000000;stroke-width:1.56900001;stroke-linecap:round;stroke-linejoin:round" />
      </g>
    </g>
    <g
       id="g1327"
       transform="matrix(0.15875,0,0,0.15875,72.722199,64.384267)">
      <g
         id="line-supplement">
        <path
           d="M 46.1875,18.3669 C 42.9707,23.2635 41,31.0078 41,34 41,31.592 44.1199,26.3626 48.3961,22 M 34.2004,17.0374 C 30.9759,21.7332 29,29.2993 29,32.8947 c 0,-3.019 3.4056,-8.5578 7.9774,-12.8776 M 20.8901,20.324 C 18.449,24.9305 17,30.9211 17,34 c 0,-3.0476 3.4704,-8.663 8.1076,-13"
           id="line-supplement_2"
           inkscape:connector-curvature="0"
           style="fill:none;stroke:#000000;stroke-width:2;stroke-linecap:round;stroke-linejoin:round" />
      </g>
      <g
         id="color-04">
        <path
           id="path1287"
           d="M 64,41 C 64,51.4934 51.464,55 36,55 20.536,55 8,51.4934 8,41 8,30.5066 16,17 36,17 56,17 64,30.5066 64,41 Z"
           inkscape:connector-curvature="0"
           style="fill:#6a462f" />
        <g
           id="g1301">
          <path
             id="path1289"
             d="m 46.1875,18.3669 c 1.5456,0.4533 2.9802,1.0088 4.3079,1.6502 C 45.1803,24.6449 41,31.2126 41,34 41,31.0078 42.9707,23.2635 46.1875,18.3669 Z"
             inkscape:connector-curvature="0"
             style="fill:#a57939" />
          <path
             id="path1291"
             d="M 40.3575,17.2272 C 38.9732,17.0782 37.5213,17 36,17 35.389,17 34.7891,17.0126 34.2004,17.0373 30.9759,21.7332 29,29.2993 29,32.8947 29,29.1677 34.1903,21.6003 40.3575,17.2272 Z"
             inkscape:connector-curvature="0"
             style="fill:#a57939" />
          <path
             id="path1293"
             d="M 29.5965,17.5063 C 22.9018,21.6846 17,30.0257 17,34 c 0,-3.0789 1.449,-9.0695 3.8901,-13.676 2.4969,-1.2884 5.3897,-2.2664 8.7064,-2.8177 z"
             inkscape:connector-curvature="0"
             style="fill:#a57939" />
          <path
             id="path1295"
             d="m 46.1875,18.3669 c 1.5456,0.4533 2.9802,1.0088 4.3079,1.6502 C 45.1803,24.6449 41,31.2126 41,34 41,31.0078 42.9707,23.2635 46.1875,18.3669 Z"
             inkscape:connector-curvature="0"
             style="fill:none;stroke:#a57939;stroke-width:2;stroke-linejoin:round" />
          <path
             id="path1297"
             d="M 40.3575,17.2272 C 38.9732,17.0782 37.5213,17 36,17 35.389,17 34.7891,17.0126 34.2004,17.0373 30.9759,21.7332 29,29.2993 29,32.8947 29,29.1677 34.1903,21.6003 40.3575,17.2272 Z"
             inkscape:connector-curvature="0"
             style="fill:none;stroke:#a57939;stroke-width:2;stroke-linejoin:round" />
          <path
             id="path1299"
             d="M 29.5965,17.5063 C 22.9018,21.6846 17,30.0257 17,34 c 0,-3.0789 1.449,-9.0695 3.8901,-13.676 2.4969,-1.2884 5.3897,-2.2664 8.7064,-2.8177 z"
             inkscape:connector-curvature="0"
             style="fill:none;stroke:#a57939;stroke-width:2;stroke-linejoin:round" />
        </g>
      </g>
      <g
         id="line-2">
        <path
           id="path1304"
           d="M 64,41 C 64,51.4934 51.464,55 36,55 20.536,55 8,51.4934 8,41 8,30.5066 16,17 36,17 56,17 64,30.5066 64,41 Z"
           inkscape:connector-curvature="0"
           style="fill:none;stroke:#000000;stroke-width:2" />
      </g>
    </g>
    <g
       id="g977"
       transform="matrix(0.15875,0,0,0.15875,72.627987,210.06588)">
      <g
         id="color">
        <path
           id="path933"
           d="m 61.02,29.52 c 0,0.3701 -0.02,0.7401 -0.05,1.11 -0.4075,8.0575 -5.22,24.1 -29.95,27.07 -6.26,-0.16 -12.03,-2.28 -16.71,-5.79 -0.98,-0.66 -3.61,-2.05 -2.77,-3.69 0.84,-1.64 4.07,-0.33 4.25,-0.29 0.1,0.03 0.2,0.06 0.29,0.11 5.54,1.88 11.54,1.95 15.73,1.95 4.18,0 17.4,-3.26 17.44,-19.74 v -0.07 c 0,-0.08 0,-0.17 0.02,-0.25 0.16,-2.92 2.41,-5.27 5.29,-5.56 0.19,-0.02 0.39,-0.03 0.6,-0.03 0.19,0 0.38,0.01 0.56,0.03 2.76,0.26 4.97,2.41 5.3,5.15 z"
           stroke-miterlimit="10"
           inkscape:connector-curvature="0"
           style="fill:#ea5a47;stroke:#ea5a47;stroke-width:2;stroke-linecap:round;stroke-linejoin:round;stroke-miterlimit:10" />
        <path
           id="path935"
           d="m 60.97,30.63 c -0.02,0.4 -0.06,0.79 -0.11,1.18 -1.66,14.58 -14.03,25.91 -29.05,25.91 -0.27,0 -10.3,-1.8875 -10.56,-1.9075 23.3441,3.5725 38.1872,-12.2053 35.5547,-24.0153 1.66,0.45 2.8053,-0.5772 4.1653,-1.1672 z"
           stroke-miterlimit="10"
           inkscape:connector-curvature="0"
           style="fill:#d22f27;stroke:#d22f27;stroke-width:2;stroke-linecap:round;stroke-linejoin:round;stroke-miterlimit:10" />
        <path
           id="path937"
           d="m 48.6055,28.4323 c -0.4282,0.8332 0.3404,1.7472 1.2376,1.4778 1.5002,-0.4505 3.4108,-0.6393 4.297,0.8565 1.2368,2.0876 5.3387,0.5293 7.0383,-0.2337 0.4606,-0.2067 0.7127,-0.708 0.5864,-1.1968 -0.4177,-1.6163 -1.8591,-5.0003 -6.6064,-5.0003 -3.6944,10e-5 -5.6073,2.2568 -6.5529,4.0965 z"
           stroke-miterlimit="10"
           inkscape:connector-curvature="0"
           style="fill:#b1cc33;stroke:none;stroke-width:2;stroke-linejoin:round;stroke-miterlimit:10" />
        <path
           id="path939"
           d="m 61.18,30.53 c -1.3,0.59 -4,1.63 -5.75,1.16 6.14,-2.85 -0.27,-7.35 -0.27,-7.35 4.75,0 6.19,3.38 6.6,5 0.13,0.48 -0.12,0.99 -0.58,1.19 z"
           stroke-miterlimit="10"
           inkscape:connector-curvature="0"
           style="fill:#5c9e31;stroke:#5c9e31;stroke-width:2;stroke-linecap:round;stroke-linejoin:round;stroke-miterlimit:10" />
      </g>
      <g
         id="hair" />
      <g
         id="skin" />
      <g
         id="skin-shadow" />
      <g
         id="line">
        <path
           id="path945"
           d="m 55.2323,24.3359 c 0,0 2.1769,-13.0859 -9.9082,-13.0859"
           stroke-miterlimit="10"
           inkscape:connector-curvature="0"
           style="fill:none;stroke:#000000;stroke-width:2;stroke-linecap:round;stroke-miterlimit:10" />
        <path
           id="path947"
           d="m 31.02,57.7 c -0.05,0.01 -0.09,0.01 -0.14,0.02"
           stroke-miterlimit="10"
           inkscape:connector-curvature="0"
           style="fill:none;stroke:#000000;stroke-width:2;stroke-linejoin:round;stroke-miterlimit:10" />
        <path
           id="path949"
           d="M 60.1362,35.7529 C 56.9018,48.383 45.4488,57.7213 31.8078,57.7213 c -6.5624,0 -12.6151,-2.1556 -17.4997,-5.8085 -0.9807,-0.6664 -3.6104,-2.0547 -2.7698,-3.6962 0.8407,-1.6414 4.0758,-0.3283 4.2563,-0.2859 0.0956,0.0319 0.1911,0.0637 0.2867,0.1062 5.543,1.8795 11.5426,1.9538 15.7264,1.9538 3.8212,0 15.1805,-2.7194 17.1531,-15.7467"
           stroke-miterlimit="10"
           inkscape:connector-curvature="0"
           style="fill:none;stroke:#000000;stroke-width:2;stroke-linecap:round;stroke-linejoin:round;stroke-miterlimit:10" />
        <path
           id="path951"
           d="m 48.6055,28.4323 c -0.4282,0.8332 0.3404,1.7472 1.2376,1.4778 1.5002,-0.4505 3.4108,-0.6393 4.297,0.8565 1.2368,2.0876 5.3387,0.5293 7.0383,-0.2337 0.4606,-0.2067 0.7127,-0.708 0.5864,-1.1968 -0.4177,-1.6163 -1.8591,-5.0003 -6.6064,-5.0003 -3.6944,10e-5 -5.6073,2.2568 -6.5529,4.0965 z"
           stroke-miterlimit="10"
           inkscape:connector-curvature="0"
           style="fill:none;stroke:#000000;stroke-width:2;stroke-linejoin:round;stroke-miterlimit:10" />
        <path
           id="path953"
           d="m 61.18,30.53 c -0.07,0.03 -0.14,0.06 -0.21,0.1 -1.36,0.59 -3.8799,1.51 -5.54,1.06 -0.54,-0.14 -1,-0.43 -1.29,-0.92 -0.89,-1.5 -2.8,-1.31 -4.3,-0.86 -0.2,0.06 -0.4,0.06 -0.57,0.02 -0.61,-0.16 -0.99,-0.85 -0.66,-1.5 0.89,-1.74 2.64,-3.84 5.95,-4.06 0.19,-0.02 0.39,-0.03 0.6,-0.03 0.19,0 0.38,0.01 0.56,0.03 4.3,0.24 5.65,3.42 6.04,4.97 0.13,0.48 -0.12,0.99 -0.58,1.19 z"
           stroke-miterlimit="10"
           inkscape:connector-curvature="0"
           style="fill:none;stroke:#000000;stroke-width:2;stroke-linejoin:round;stroke-miterlimit:10" />
      </g>
    </g>
    <g
       id="g1370"
       transform="matrix(0.15875,0,0,0.15875,125.90085,16.197714)">
      <g
         id="color-9">
        <rect
           id="rect1329"
           stroke-miterlimit="10"
           height="50"
           width="50"
           y="11"
           x="11.1359"
           style="fill:#3f3f3f;stroke:none;stroke-width:2;stroke-linecap:round;stroke-linejoin:round;stroke-miterlimit:10" />
        <polyline
           id="polyline1331"
           points="56.1359,60 56.1359,35.1616 16.1359,35.1616 16.1359,60"
           stroke-miterlimit="10"
           style="fill:#d0cfce;stroke:none;stroke-width:2;stroke-linecap:round;stroke-linejoin:round;stroke-miterlimit:10" />
        <polyline
           id="polyline1333"
           points="16.1359,12 16.1359,29.6067 47.0488,29.6067 47.0488,12"
           stroke-miterlimit="10"
           style="fill:#9b9b9a;stroke:none;stroke-width:2;stroke-linecap:round;stroke-linejoin:round;stroke-miterlimit:10" />
        <rect
           id="rect1335"
           stroke-miterlimit="10"
           height="5.7712998"
           width="32.030602"
           y="38.959999"
           x="19.956301"
           style="fill:#61b2e4;stroke:none;stroke-width:2;stroke-linecap:round;stroke-linejoin:round;stroke-miterlimit:10" />
      </g>
      <g
         id="hair-6" />
      <g
         id="skin-1" />
      <g
         id="skin-shadow-0" />
      <g
         id="line-4">
        <rect
           id="rect1341"
           stroke-miterlimit="10"
           height="50"
           width="50"
           y="11"
           x="11.1359"
           style="fill:none;stroke:#000000;stroke-width:2;stroke-linecap:round;stroke-linejoin:round;stroke-miterlimit:10" />
        <polyline
           id="polyline1343"
           points="56.1359,60 56.1359,35.1616 16.1359,35.1616 16.1359,60"
           stroke-miterlimit="10"
           style="fill:none;stroke:#000000;stroke-width:2;stroke-linecap:round;stroke-linejoin:round;stroke-miterlimit:10" />
        <polyline
           id="polyline1345"
           points="16.1359,12 16.1359,29.6067 47.0488,29.6067 47.0488,12"
           stroke-miterlimit="10"
           style="fill:none;stroke:#000000;stroke-width:2;stroke-linecap:round;stroke-linejoin:round;stroke-miterlimit:10" />
        <rect
           id="rect1347"
           stroke-miterlimit="10"
           height="5.7712998"
           width="32.030602"
           y="38.959999"
           x="19.956301"
           style="fill:none;stroke:#000000;stroke-width:2;stroke-linecap:round;stroke-linejoin:round;stroke-miterlimit:10" />
      </g>
    </g>
    <g
       id="g1407"
       transform="matrix(0.15875,0,0,0.15875,72.721663,161.09607)">
      <g
         id="color-22">
        <path
           id="path1372"
           d="m 52,42.2 c 0,0 -0.2,-6.2 -0.3,-6.8 -0.1,-0.6 -0.7,-1.6 -1,-2.1 L 48.2,29 42,24.5 l -7.2,5.4 2.6,4.5 4.9,-0.4 10.2,13.3 z"
           inkscape:connector-curvature="0"
           style="fill:#3f3f3f" />
        <polyline
           id="polyline1374"
           points="50,39 53.4,48.1 60,56 12,56 16,49 18,37 25,18 29,22 33,25 37,33 42,33 50,39"
           style="fill:#9b9b9a" />
      </g>
      <g
         id="hair-20" />
      <g
         id="skin-55" />
      <g
         id="skin-shadow-29" />
      <g
         id="line-0">
        <polyline
           id="polyline1380"
           points="60,55 53.4,48.1 50,39"
           stroke-miterlimit="10"
           style="fill:none;stroke:#000000;stroke-width:2;stroke-linecap:round;stroke-linejoin:round;stroke-miterlimit:10" />
        <polyline
           id="polyline1382"
           points="37,33 33,25 29,22 25,18 18,37 16,49 12,55"
           stroke-miterlimit="10"
           style="fill:none;stroke:#000000;stroke-width:2;stroke-linecap:round;stroke-linejoin:round;stroke-miterlimit:10" />
        <polyline
           id="polyline1384"
           points="31,24 32,33 42,33 50,39 49,45 50,50 48,52 45,55"
           stroke-miterlimit="10"
           style="fill:none;stroke:#000000;stroke-width:2;stroke-linecap:round;stroke-linejoin:round;stroke-miterlimit:10" />
        <polyline
           id="polyline1386"
           points="39,28 43,25 47,29 50,34"
           stroke-miterlimit="10"
           style="fill:none;stroke:#000000;stroke-width:2;stroke-linecap:round;stroke-linejoin:round;stroke-miterlimit:10" />
      </g>
    </g>
    <g
       id="g1456"
       transform="matrix(0.15875,0,0,0.15875,20.192435,161.89026)">
      <g
         id="color-28">
        <path
           id="path1409"
           d="m 52.2637,19.7373 c 0.4765,0.4775 0.916,0.9775 1.3418,1.4854 l 2.9004,-5.7286 C 45.1807,4.1689 26.8184,4.1689 15.4941,15.4941 l 2.9004,5.7286 c 0.4258,-0.5079 0.8653,-1.0079 1.3418,-1.4854 8.9834,-8.9834 23.544,-8.9834 32.5274,0 z"
           inkscape:connector-curvature="0"
           style="fill:#f4aa41;stroke:none" />
        <path
           id="path1411"
           d="m 53.6055,21.2227 c -0.4258,-0.5079 -0.8653,-1.0079 -1.3418,-1.4854 -8.9834,-8.9834 -23.544,-8.9834 -32.5274,0 -0.4765,0.4775 -0.916,0.9775 -1.3418,1.4854 L 36,56 Z"
           inkscape:connector-curvature="0"
           style="fill:#fcea2b;stroke:none" />
        <circle
           id="circle1413"
           r="5"
           cy="24"
           cx="31"
           style="fill:#ea5a47;stroke:none" />
        <circle
           id="circle1415"
           r="3"
           cy="24"
           cx="44"
           style="fill:#ea5a47;stroke:none" />
        <circle
           id="circle1417"
           r="3"
           cy="36"
           cx="37"
           style="fill:#ea5a47;stroke:none" />
      </g>
      <g
         id="hair-3" />
      <g
         id="skin-80" />
      <g
         id="skin-shadow-40" />
      <g
         id="line-919">
        <path
           id="path1423"
           d="m 52.2637,19.7373 c 0.4765,0.4775 0.916,0.9775 1.3418,1.4854 l 2.9004,-5.7286 C 45.1807,4.1689 26.8184,4.1689 15.4941,15.4941 l 2.9004,5.7286 c 0.4258,-0.5079 0.8653,-1.0079 1.3418,-1.4854 8.9834,-8.9834 23.544,-8.9834 32.5274,0 z"
           stroke-miterlimit="10"
           inkscape:connector-curvature="0"
           style="fill:none;stroke:#000000;stroke-width:2;stroke-linecap:round;stroke-linejoin:round;stroke-miterlimit:10" />
        <path
           id="path1425"
           d="m 53.6055,21.2227 c -0.4258,-0.5079 -0.8653,-1.0079 -1.3418,-1.4854 -8.9834,-8.9834 -23.544,-8.9834 -32.5274,0 -0.4765,0.4775 -0.916,0.9775 -1.3418,1.4854 L 36,56 Z"
           stroke-miterlimit="10"
           inkscape:connector-curvature="0"
           style="fill:none;stroke:#000000;stroke-width:2;stroke-linecap:round;stroke-linejoin:round;stroke-miterlimit:10" />
        <circle
           id="circle1427"
           stroke-miterlimit="10"
           r="5"
           cy="24"
           cx="31"
           style="fill:none;stroke:#000000;stroke-width:2;stroke-linecap:round;stroke-linejoin:round;stroke-miterlimit:10" />
        <circle
           id="circle1429"
           stroke-miterlimit="10"
           r="3"
           cy="24"
           cx="44"
           style="fill:none;stroke:#000000;stroke-width:2;stroke-linecap:round;stroke-linejoin:round;stroke-miterlimit:10" />
        <circle
           id="circle1431"
           stroke-miterlimit="10"
           r="3"
           cy="36"
           cx="37"
           style="fill:none;stroke:#000000;stroke-width:2;stroke-linecap:round;stroke-linejoin:round;stroke-miterlimit:10" />
      </g>
    </g>
    <g
       id="g1514"
       transform="matrix(0.15875,0,0,0.15875,20.297872,113.22587)">
      <g
         id="color-62">
        <path
           id="path1458"
           d="m 23.5,14.5855 -4.5,1.75 -7.25,8.5 -4.5,10.75 2,5.25 c 1.2554,3.7911 3.5231,7.1832 7.25,10 L 19,47.5022 c 0,0 3.8218,7.7098 10.7384,8.9598 0,0 10.2616,1.936 15.5949,-0.8765 3.4203,-1.8037 4.4167,-4.4167 4.4167,-4.4167 l 3.4167,-3.4167 1.5833,2.3333 2.0833,-0.0833 5.4167,-7.25 1.75,-5.4166 -0.1667,-4.5 -2.3333,-5.5 -4.8333,-7.4167 c 0,0 -2.6667,-4.9167 -8.1667,-3.9167 0,0 -6.5,-4.8333 -11.8333,-4.0833 -5.3333,0.75 -4.5834,-1.25 -13.1667,2.6667 z"
           inkscape:connector-curvature="0"
           style="fill:#f4aa41;stroke:none" />
        <polygon
           id="polygon1460"
           points="30.4167,49.6688 30.3333,53.5021 31.0833,57.0021 32.1667,58.9188 35,60.4188 39.5833,59.8355 41.1667,58.0855 42.1667,53.8355 41.9167,49.8355 39.9167,50.0855 36,47.2521 32.9167,49.6688 "
           style="fill:#ea5a47;stroke:none" />
        <polygon
           id="polygon1462"
           points="34.3333,42.4188 38.6667,42.5855 41.5833,40.3355 39.8333,37.0855 32.5,36.9188 30.9167,40.6688 33.0833,41.9188 "
           style="fill:#3f3f3f;stroke:none" />
      </g>
      <g
         id="hair-5" />
      <g
         id="skin-4" />
      <g
         id="skin-shadow-49" />
      <g
         id="line-93">
        <path
           id="path1468"
           d="m 29.5059,30.1088 c 0,0 -1.8051,1.2424 -2.7484,0.6679 -0.9434,-0.5745 -1.2424,-1.8051 -0.6679,-2.7484 0.5745,-0.9433 1.805,-1.2424 2.7484,-0.6679 0.9434,0.5745 0.6679,2.7484 0.6679,2.7484 z"
           inkscape:connector-curvature="0"
           style="fill:#000000;stroke:none" />
        <path
           id="path1470"
           d="m 33.1089,37.006 h 6.1457 c 0.4011,0 0.7634,0.2397 0.9203,0.6089 l 1.1579,2.7245 -2.1792,1.1456 c -0.6156,0.3236 -1.3654,-0.0645 -1.4567,-0.754"
           stroke-miterlimit="10"
           inkscape:connector-curvature="0"
           style="fill:none;stroke:#000000;stroke-width:2;stroke-linecap:round;stroke-linejoin:round;stroke-miterlimit:10" />
        <path
           id="path1472"
           d="m 34.7606,40.763 c -0.1132,0.6268 -0.7757,0.9895 -1.3647,0.7471 l -2.3132,-0.952 1.0899,-2.9035 c 0.1465,-0.3901 0.5195,-0.6486 0.9362,-0.6486"
           stroke-miterlimit="10"
           inkscape:connector-curvature="0"
           style="fill:none;stroke:#000000;stroke-width:2;stroke-linecap:round;stroke-linejoin:round;stroke-miterlimit:10" />
        <path
           id="path1474"
           d="m 30.4364,50.0268 c 0,0 -0.7187,8.7934 3.0072,9.9375 2.6459,0.8125 5.1497,0.5324 6.0625,-0.25 0.875,-0.75 2.6323,-4.4741 1.8267,-9.6875"
           stroke-miterlimit="10"
           inkscape:connector-curvature="0"
           style="fill:none;stroke:#000000;stroke-width:2;stroke-linecap:round;stroke-linejoin:round;stroke-miterlimit:10" />
        <path
           id="path1476"
           d="m 44.2636,30.1088 c 0,0 1.805,1.2424 2.7484,0.6679 0.9434,-0.5745 1.2424,-1.8051 0.6679,-2.7484 -0.5745,-0.9434 -1.805,-1.2424 -2.7484,-0.6679 -0.9434,0.5745 -0.6679,2.7484 -0.6679,2.7484 z"
           inkscape:connector-curvature="0"
           style="fill:#000000;stroke:none" />
        <path
           id="path1478"
           d="m 25.6245,42.8393 c -0.475,3.6024 2.2343,5.7505 4.2847,6.8414 1.1968,0.6367 2.6508,0.5182 3.7176,-0.3181 l 2.581,-2.0233 2.581,2.0233 c 1.0669,0.8363 2.5209,0.9548 3.7176,0.3181 2.0504,-1.0909 4.7597,-3.239 4.2847,-6.8414"
           stroke-miterlimit="10"
           inkscape:connector-curvature="0"
           style="fill:none;stroke:#000000;stroke-width:2;stroke-linecap:round;stroke-linejoin:round;stroke-miterlimit:10" />
        <path
           id="path1480"
           d="m 19.9509,28.3572 c -2.3166,5.1597 -0.5084,13.0249 0.119,15.3759 0.122,0.4571 0.0755,0.9355 -0.1271,1.3631 l -1.9874,4.1937 c -0.623,1.3146 -2.3934,1.5533 -3.331,0.4409 C 11.4323,45.9437 6.066,38.3409 8.0758,33.0448 15.1383,14.4344 23.9435,14.9019 23.9435,14.9019 c 2.8453,-1.9336 13.1042,-6.9375 24.8125,0.875 0,0 8.6323,-1.7175 14.9375,16.9375 1.8036,5.3362 -3.4297,12.8668 -6.5506,16.6442 -0.9312,1.127 -2.7162,0.8939 -3.3423,-0.4272 l -1.9741,-4.1656 c -0.2026,-0.4275 -0.2491,-0.906 -0.1271,-1.3631 0.6275,-2.3509 2.4356,-10.2161 0.119,-15.3759"
           stroke-miterlimit="10"
           inkscape:connector-curvature="0"
           style="fill:none;stroke:#000000;stroke-width:2;stroke-linecap:round;stroke-linejoin:round;stroke-miterlimit:10" />
        <path
           id="path1482"
           d="m 52.6309,46.4628 c 0,0 -3.0781,6.7216 -7.8049,8.2712"
           stroke-miterlimit="10"
           inkscape:connector-curvature="0"
           style="fill:none;stroke:#000000;stroke-width:2;stroke-linecap:round;stroke-linejoin:round;stroke-miterlimit:10" />
        <path
           id="path1484"
           d="m 19.437,46.969 c 0,0 3.0781,6.0823 7.8049,7.632"
           stroke-miterlimit="10"
           inkscape:connector-curvature="0"
           style="fill:none;stroke:#000000;stroke-width:2;stroke-linecap:round;stroke-linejoin:round;stroke-miterlimit:10" />
        <line
           id="line1486"
           stroke-miterlimit="10"
           y2="44.309299"
           y1="47.339298"
           x2="36.207802"
           x1="36.207802"
           style="fill:none;stroke:#000000;stroke-width:2;stroke-linecap:round;stroke-linejoin:round;stroke-miterlimit:10" />
      </g>
    </g>
    <g
       id="g1586"
       transform="matrix(0.15875,0,0,0.15875,20.065427,14.809583)">
      <g
         id="line-6">
        <g
           id="g1526">
          <path
             id="path1516"
             d="m 31,45 a 0.9448,0.9448 0 0 0 -1,1 9.2,9.2 0 1 1 -9.2,-9.2 v 0 l 0.2,-2 H 20.8 A 11.2,11.2 0 1 0 32,46 0.9448,0.9448 0 0 0 31,45 Z"
             inkscape:connector-curvature="0" />
          <path
             id="path1518"
             d="m 52.8,34.8 a 12.2713,12.2713 0 0 0 -3.9,0.7 l 0.9,1.8 a 10.4735,10.4735 0 0 1 3,-0.5 9.2,9.2 0 1 1 -9.1,9.7 l -2,-0.1 A 11.1545,11.1545 0 1 0 52.8,34.8 Z"
             inkscape:connector-curvature="0" />
          <path
             id="path1520"
             d="m 48,38.2 -0.9,-1.8 a 11.0932,11.0932 0 0 0 -5.3,7.9 l 2,0.1 A 9.3751,9.3751 0 0 1 48,38.2 Z"
             inkscape:connector-curvature="0" />
          <line
             id="line1522"
             y2="22"
             y1="22"
             x2="27"
             x1="23"
             style="fill:none;stroke:#000000;stroke-width:2;stroke-linecap:round;stroke-linejoin:round" />
          <line
             id="line1524"
             y2="25.700001"
             y1="25.700001"
             x2="48"
             x1="42"
             style="fill:none;stroke:#000000;stroke-width:2;stroke-linecap:round;stroke-linejoin:round" />
        </g>
        <g
           id="g1540">
          <line
             id="line1528"
             y2="24.6"
             y1="46"
             x2="22.799999"
             x1="21.1"
             style="fill:none;stroke:#000000;stroke-width:2;stroke-linecap:round;stroke-linejoin:round" />
          <line
             id="line1530"
             y2="30"
             y1="45"
             x2="23"
             x1="36"
             style="fill:none;stroke:#000000;stroke-width:2;stroke-linecap:round;stroke-linejoin:round" />
          <line
             id="line1532"
             y2="46"
             y1="30"
             x2="53"
             x1="45"
             style="fill:none;stroke:#000000;stroke-width:2;stroke-linecap:round;stroke-linejoin:round" />
          <line
             id="line1534"
             y2="30"
             y1="30"
             x2="44"
             x1="23"
             style="fill:none;stroke:#000000;stroke-width:2;stroke-linecap:round;stroke-linejoin:round" />
          <line
             id="line1536"
             y2="45"
             y1="28.4"
             x2="36"
             x1="46"
             style="fill:none;stroke:#000000;stroke-width:2;stroke-linecap:round;stroke-linejoin:round" />
          <line
             id="line1538"
             y2="46"
             y1="45"
             x2="53"
             x1="36"
             style="fill:none;stroke:#000000;stroke-width:2;stroke-linecap:round;stroke-linejoin:round" />
        </g>
      </g>
      <g
         id="color-05" />
      <g
         id="color-foreground">
        <line
           id="line1544"
           y2="24.6"
           y1="46"
           x2="22.799999"
           x1="21.1"
           style="fill:none;stroke:#ea5a47;stroke-width:2.0999999;stroke-linecap:round;stroke-linejoin:round" />
        <line
           id="line1546"
           y2="30"
           y1="45"
           x2="23"
           x1="36"
           style="fill:none;stroke:#ea5a47;stroke-width:2.0999999;stroke-linecap:round;stroke-linejoin:round" />
        <line
           id="line1548"
           y2="46"
           y1="30"
           x2="53"
           x1="45"
           style="fill:none;stroke:#ea5a47;stroke-width:2.0999999;stroke-linecap:round;stroke-linejoin:round" />
        <line
           id="line1550"
           y2="30"
           y1="30"
           x2="44"
           x1="23"
           style="fill:none;stroke:#ea5a47;stroke-width:2.0999999;stroke-linecap:round;stroke-linejoin:round" />
        <line
           id="line1552"
           y2="45"
           y1="28.4"
           x2="36"
           x1="46"
           style="fill:none;stroke:#ea5a47;stroke-width:2.0999999;stroke-linecap:round;stroke-linejoin:round" />
        <line
           id="line1554"
           y2="46"
           y1="45"
           x2="53"
           x1="36"
           style="fill:none;stroke:#ea5a47;stroke-width:2.0999999;stroke-linecap:round;stroke-linejoin:round" />
      </g>
    </g>
    <g
       id="g1662"
       transform="matrix(0.15875,0,0,0.15875,72.721816,16.504966)">
      <g
         id="color-02">
        <path
           id="path1588"
           d="m 34,16.1123 v -2.5109 c 0,-1.3807 1.1193,-2.5 2.5,-2.5 v 0 c 1.3807,0 2.5,1.1193 2.5,2.5 v 2.5"
           inkscape:connector-curvature="0"
           style="fill:#d22f27" />
        <path
           id="path1590"
           d="m 13.5,41.1014 v 0 c -1.3807,0 -2.5,-1.1193 -2.5,-2.5 v -8 c 0,-1.3807 1.1193,-2.5 2.5,-2.5 v 0 c 1.3807,0 2.5,1.1193 2.5,2.5 v 8 c 0,1.3807 -1.1193,2.5 -2.5,2.5 z"
           inkscape:connector-curvature="0"
           style="fill:#d0cfce" />
        <path
           id="path1592"
           d="m 58.5,41.1014 v 0 c 1.3807,0 2.5,-1.1193 2.5,-2.5 v -8 c 0,-1.3807 -1.1193,-2.5 -2.5,-2.5 v 0 c -1.3807,0 -2.5,1.1193 -2.5,2.5 v 8 c 0,1.3807 1.1193,2.5 2.5,2.5 z"
           inkscape:connector-curvature="0"
           style="fill:#d0cfce" />
        <path
           id="path1594"
           d="M 47.4505,56.1123 H 24.5495 C 19.8473,56.1123 16,52.265 16,47.5628 v -22.901 c 0,-4.7022 3.8473,-8.5495 8.5495,-8.5495 h 22.901 c 4.7022,0 8.5495,3.8473 8.5495,8.5495 v 22.901 c 0,4.7021 -3.8473,8.5495 -8.5495,8.5495 z"
           inkscape:connector-curvature="0"
           style="fill:#d0cfce" />
        <path
           id="path1596"
           d="M 35.4977,56.1115 H 48.7842 C 52.7529,56.1115 56,52.2642 56,47.562 V 24.661 c 0,-4.7022 -3.2471,-8.5495 -7.2158,-8.5495 h -2.3526"
           inkscape:connector-curvature="0"
           style="fill:#9b9b9a" />
        <circle
           id="ellipse1598"
           cy="29.002701"
           cx="44.834599"
           r="2.8338001"
           style="fill:#ffffff" />
        <circle
           id="ellipse1600"
           cy="29.002199"
           cx="27.3342"
           r="2.8338001"
           style="fill:#ffffff" />
        <path
           id="path1602"
           d="m 44.5,47.5005 h -17 c -2.2,0 -4,-1.8 -4,-4 v 0 c 0,-2.2 1.8,-4 4,-4 h 17 c 2.2,0 4,1.8 4,4 v 0 c 0,2.2 -1.8,4 -4,4 z"
           inkscape:connector-curvature="0"
           style="fill:#ffffff" />
      </g>
      <g
         id="hair-9" />
      <g
         id="skin-43" />
      <g
         id="skin-shadow-5" />
      <g
         id="line-17">
        <path
           id="path1608"
           d="M 34,16.0109 V 13.5 C 34,12.1193 35.1193,11 36.5,11 v 0 c 1.3807,0 2.5,1.1193 2.5,2.5 V 16"
           stroke-miterlimit="2"
           inkscape:connector-curvature="0"
           style="fill:none;stroke:#000000;stroke-width:2;stroke-linecap:round;stroke-linejoin:round;stroke-miterlimit:2" />
        <path
           id="path1610"
           d="M 47.4505,56 H 24.5495 C 19.8473,56 16,52.1527 16,47.4505 V 24.5495 C 16,19.8473 19.8473,16 24.5495,16 h 22.901 C 52.1527,16 56,19.8473 56,24.5495 v 22.901 C 56,52.1527 52.1527,56 47.4505,56 Z"
           stroke-miterlimit="2"
           inkscape:connector-curvature="0"
           style="fill:none;stroke:#000000;stroke-width:2;stroke-linecap:round;stroke-linejoin:round;stroke-miterlimit:2" />
        <circle
           id="ellipse1612"
           stroke-miterlimit="2"
           cy="29.002199"
           cx="44.834599"
           r="2.8338001"
           style="fill:none;stroke:#000000;stroke-width:2;stroke-linecap:round;stroke-linejoin:round;stroke-miterlimit:2" />
        <circle
           id="ellipse1614"
           stroke-miterlimit="2"
           cy="29.001699"
           cx="27.3342"
           r="2.8338001"
           style="fill:none;stroke:#000000;stroke-width:2;stroke-linecap:round;stroke-linejoin:round;stroke-miterlimit:2" />
        <path
           id="path1616"
           d="m 44.5,47.5 h -17 c -2.2,0 -4,-1.8 -4,-4 v 0 c 0,-2.2 1.8,-4 4,-4 h 17 c 2.2,0 4,1.8 4,4 v 0 c 0,2.2 -1.8,4 -4,4 z"
           stroke-miterlimit="2"
           inkscape:connector-curvature="0"
           style="fill:none;stroke:#000000;stroke-width:2;stroke-miterlimit:2" />
        <path
           id="path1618"
           d="m 13.5,41 v 0 C 12.1193,41 11,39.8807 11,38.5 v -8 C 11,29.1193 12.1193,28 13.5,28 v 0 c 1.3807,0 2.5,1.1193 2.5,2.5 v 8 c 0,1.3807 -1.1193,2.5 -2.5,2.5 z"
           stroke-miterlimit="2"
           inkscape:connector-curvature="0"
           style="fill:none;stroke:#000000;stroke-width:2;stroke-linecap:round;stroke-linejoin:round;stroke-miterlimit:2" />
        <path
           id="path1620"
           d="m 58.5,41 v 0 c 1.3807,0 2.5,-1.1193 2.5,-2.5 v -8 C 61,29.1193 59.8807,28 58.5,28 v 0 C 57.1193,28 56,29.1193 56,30.5 v 8 c 0,1.3807 1.1193,2.5 2.5,2.5 z"
           stroke-miterlimit="2"
           inkscape:connector-curvature="0"
           style="fill:none;stroke:#000000;stroke-width:2;stroke-linecap:round;stroke-linejoin:round;stroke-miterlimit:2" />
        <line
           id="line1622"
           stroke-miterlimit="2"
           y2="47"
           y1="40"
           x2="28"
           x1="28"
           style="fill:none;stroke:#000000;stroke-width:2;stroke-linecap:round;stroke-linejoin:round;stroke-miterlimit:2" />
        <line
           id="line1624"
           stroke-miterlimit="2"
           y2="47"
           y1="40"
           x2="33"
           x1="33"
           style="fill:none;stroke:#000000;stroke-width:2;stroke-linecap:round;stroke-linejoin:round;stroke-miterlimit:2" />
        <line
           id="line1626"
           stroke-miterlimit="2"
           y2="47"
           y1="40"
           x2="38"
           x1="38"
           style="fill:none;stroke:#000000;stroke-width:2;stroke-linecap:round;stroke-linejoin:round;stroke-miterlimit:2" />
        <line
           id="line1628"
           stroke-miterlimit="2"
           y2="47"
           y1="40"
           x2="43"
           x1="43"
           style="fill:none;stroke:#000000;stroke-width:2;stroke-linecap:round;stroke-linejoin:round;stroke-miterlimit:2" />
      </g>
    </g>
  </g>
  <g
     inkscape:groupmode="layer"
     id="layer2"
     inkscape:label="Layer 2"
     transform="translate(24.352756,22.406446)" />
</svg>
